<svg xmlns="http://www.w3.org/2000/svg" width="720" height="720" viewBox="0 0 720 720" role="img" aria-labelledby="title desc">
  <title id="title">Avatar profesional tecnológico</title>
  <desc id="desc">Ilustración de un desarrollador backend con entorno futurista azul.</desc>
  <defs>
    <linearGradient id="bg" x1="0" y1="0" x2="1" y2="1">
      <stop offset="0" stop-color="#06172b"/>
      <stop offset="0.55" stop-color="#07111f"/>
      <stop offset="1" stop-color="#00a3ff"/>
    </linearGradient>
    <linearGradient id="line" x1="0" y1="0" x2="1" y2="1">
      <stop offset="0" stop-color="#44f2ff"/>
      <stop offset="1" stop-color="#1178ff"/>
    </linearGradient>
    <filter id="glow" x="-30%" y="-30%" width="160%" height="160%">
      <feGaussianBlur stdDeviation="10" result="blur"/>
      <feMerge>
        <feMergeNode in="blur"/>
        <feMergeNode in="SourceGraphic"/>
      </feMerge>
    </filter>
  </defs>
  <rect width="720" height="720" rx="28" fill="url(#bg)"/>
  <path d="M86 560C184 458 256 422 360 422s176 36 274 138v88H86z" fill="#07111f"/>
  <circle cx="360" cy="250" r="108" fill="#dbeafe"/>
  <path d="M245 258c8-88 61-148 127-148 73 0 116 58 117 134-82 1-139-20-181-64-10 37-30 62-63 78z" fill="#08111f"/>
  <path d="M260 414c34 38 67 57 100 57s66-19 100-57l42 178H218z" fill="#0f2746"/>
  <path d="M264 420h192l-38 108-58-44-58 44z" fill="#0b1b32"/>
  <path d="M144 134h110M486 134h90M132 610h456M96 210h74M548 260h72M114 350h62M528 410h84" stroke="url(#line)" stroke-width="5" stroke-linecap="round" opacity=".72" filter="url(#glow)"/>
  <rect x="105" y="106" width="120" height="52" rx="8" fill="#07111f" stroke="#44f2ff" opacity=".86"/>
  <rect x="480" y="104" width="112" height="52" rx="8" fill="#07111f" stroke="#44f2ff" opacity=".86"/>
  <text x="128" y="139" fill="#44f2ff" font-family="Inter, Arial" font-size="20" font-weight="700">{ API }</text>
  <text x="505" y="138" fill="#44f2ff" font-family="Inter, Arial" font-size="20" font-weight="700">SQL</text>
  <circle cx="260" cy="258" r="8" fill="#07111f"/>
  <circle cx="446" cy="258" r="8" fill="#07111f"/>
  <path d="M326 306c24 18 49 18 73 0" stroke="#07111f" stroke-width="7" stroke-linecap="round"/>
</svg>
